<svg width="13" height="26" viewBox="0 0 13 26" fill="none" xmlns="http://www.w3.org/2000/svg">
<path d="M6.5 0C2.91007 0 0 2.97671 0 6.64896C0 10.3212 2.91002 13.2979 6.5 13.2979C10.09 13.2979 13 10.3212 13 6.64896C13 2.97671 10.09 0 6.5 0ZM5.90914 14.4879V25.3869C5.90688 25.5489 5.96809 25.7047 6.07917 25.82C6.19026 25.9353 6.34174 26 6.50002 26C6.65829 26 6.80977 25.9353 6.92086 25.82C7.03194 25.7047 7.09315 25.5489 7.09089 25.3869V14.4879C6.89592 14.5031 6.69869 14.5069 6.50003 14.5069C6.30137 14.5069 6.10413 14.5031 5.90917 14.4879H5.90914Z" fill="#231815"/>
</svg>
